<svg width="21" height="20" viewBox="0 0 21 20" fill="none" xmlns="http://www.w3.org/2000/svg">
<g clip-path="url(#clip0_373_29)">
<path fill-rule="evenodd" clip-rule="evenodd" d="M1.90413 1.10254H18.4066C18.9109 1.10471 19.394 1.30603 19.7506 1.66265C20.1073 2.01927 20.3086 2.50233 20.3107 3.00667V7.42816H0V3.00667C0.00174258 2.5022 0.202915 2.01889 0.559633 1.66217C0.91635 1.30545 1.39966 1.10428 1.90413 1.10254ZM6.00165 2.71411C6.30601 2.71411 6.60353 2.80436 6.85659 2.97345C7.10965 3.14254 7.30689 3.38288 7.42336 3.66406C7.53983 3.94525 7.5703 4.25466 7.51093 4.55317C7.45155 4.85167 7.30499 5.12587 7.08978 5.34108C6.87457 5.55629 6.60037 5.70285 6.30187 5.76223C6.00336 5.8216 5.69395 5.79113 5.41276 5.67466C5.13158 5.55819 4.89124 5.36095 4.72215 5.10789C4.55306 4.85483 4.46281 4.55731 4.46281 4.25295C4.46281 3.84483 4.62494 3.45341 4.91353 3.16483C5.20212 2.87624 5.59353 2.71411 6.00165 2.71411V2.71411ZM14.2314 2.71411C14.5358 2.71411 14.8333 2.80436 15.0863 2.97345C15.3394 3.14254 15.5366 3.38288 15.6531 3.66406C15.7696 3.94525 15.8001 4.25466 15.7407 4.55317C15.6813 4.85167 15.5347 5.12587 15.3195 5.34108C15.1043 5.55629 14.8301 5.70285 14.5316 5.76223C14.2331 5.8216 13.9237 5.79113 13.6425 5.67466C13.3613 5.55819 13.121 5.36095 12.9519 5.10789C12.7828 4.85483 12.6926 4.55731 12.6926 4.25295C12.6926 3.84483 12.8547 3.45341 13.1433 3.16483C13.4319 2.87624 13.8233 2.71411 14.2314 2.71411V2.71411Z" fill="#EF4136"/>
<path d="M18.4066 20H1.90413C1.39979 19.9978 0.916734 19.7965 0.56011 19.4399C0.203487 19.0833 0.00217484 18.6002 0 18.0959L0 6.61157H20.3107V18.0926C20.3099 18.5976 20.1091 19.0818 19.7523 19.4392C19.3955 19.7966 18.9117 19.9983 18.4066 20V20Z" fill="#808080"/>
<path fill-rule="evenodd" clip-rule="evenodd" d="M2.10744 19.3901H18.2033C18.5999 19.3883 18.9798 19.23 19.2603 18.9495C19.5408 18.6691 19.6991 18.2892 19.7008 17.8926V6.61157H0.609924V17.8893C0.611232 18.286 0.769425 18.6662 1.04998 18.9467C1.33054 19.2273 1.71068 19.3855 2.10744 19.3868V19.3901Z" fill="white"/>
<path fill-rule="evenodd" clip-rule="evenodd" d="M14.2314 2.41821C14.6563 2.41776 15.0682 2.56465 15.3969 2.83385C15.7256 3.10304 15.9508 3.4779 16.0341 3.89453C16.1174 4.31116 16.0537 4.74379 15.8538 5.11869C15.6538 5.49358 15.3301 5.78756 14.9377 5.95051C14.5453 6.11346 14.1086 6.13531 13.7019 6.01233C13.2952 5.88935 12.9437 5.62916 12.7074 5.27608C12.471 4.92301 12.3644 4.4989 12.4057 4.07604C12.447 3.65318 12.6337 3.25772 12.9339 2.95706L12.9521 2.94053C13.2938 2.60575 13.7531 2.41823 14.2314 2.41821V2.41821ZM14.2314 2.71408C14.5358 2.71408 14.8333 2.80433 15.0864 2.97342C15.3394 3.14251 15.5367 3.38285 15.6531 3.66403C15.7696 3.94522 15.8001 4.25463 15.7407 4.55314C15.6813 4.85164 15.5348 5.12584 15.3196 5.34105C15.1043 5.55626 14.8301 5.70282 14.5316 5.7622C14.2331 5.82158 13.9237 5.7911 13.6425 5.67463C13.3614 5.55816 13.121 5.36092 12.9519 5.10786C12.7828 4.8548 12.6926 4.55728 12.6926 4.25292C12.6926 3.8448 12.8547 3.45339 13.1433 3.1648C13.4319 2.87621 13.8233 2.71408 14.2314 2.71408V2.71408Z" fill="#C72B20"/>
<path fill-rule="evenodd" clip-rule="evenodd" d="M6.00163 2.41821C6.42651 2.41776 6.8384 2.56465 7.16711 2.83385C7.49582 3.10304 7.72102 3.4779 7.80432 3.89453C7.88763 4.31116 7.82388 4.74379 7.62396 5.11869C7.42403 5.49358 7.10029 5.78756 6.7079 5.95051C6.31552 6.11346 5.87876 6.13531 5.47207 6.01233C5.06538 5.88935 4.71392 5.62916 4.47758 5.27608C4.24123 4.92301 4.13463 4.4989 4.17594 4.07604C4.21725 3.65318 4.40391 3.25772 4.70411 2.95706L4.72229 2.94053C5.06418 2.60605 5.52334 2.41858 6.00163 2.41821V2.41821ZM6.00163 2.71408C6.30599 2.71408 6.60351 2.80433 6.85657 2.97342C7.10963 3.14251 7.30687 3.38285 7.42334 3.66403C7.53981 3.94522 7.57028 4.25463 7.51091 4.55314C7.45153 4.85164 7.30497 5.12584 7.08976 5.34105C6.87455 5.55626 6.60035 5.70282 6.30185 5.7622C6.00334 5.82158 5.69393 5.7911 5.41274 5.67463C5.13156 5.55816 4.89122 5.36092 4.72213 5.10786C4.55304 4.8548 4.46279 4.55728 4.46279 4.25292C4.46279 3.8448 4.62492 3.45339 4.91351 3.1648C5.2021 2.87621 5.59351 2.71408 6.00163 2.71408V2.71408Z" fill="#C72B20"/>
<path d="M13.3124 0.753719C13.3124 0.330579 13.719 0 14.2314 0C14.7438 0 15.1504 0.330579 15.1504 0.753719V4.2595C15.1504 4.67438 14.7405 5.01322 14.2314 5.01322C13.7223 5.01322 13.3124 4.68264 13.3124 4.2595V0.753719V0.753719Z" fill="#1A1A1A"/>
<path d="M5.08264 0.753719C5.08264 0.330579 5.49421 0 6.00165 0C6.50909 0 6.92066 0.330579 6.92066 0.753719V4.2595C6.92066 4.67438 6.51074 5.01322 6.00165 5.01322C5.49256 5.01322 5.08264 4.68264 5.08264 4.2595V0.753719V0.753719Z" fill="#1A1A1A"/>
<path fill-rule="evenodd" clip-rule="evenodd" d="M3.63639 14.1521H5.95044C6.02891 14.1521 6.10416 14.1833 6.15965 14.2388C6.21513 14.2942 6.24631 14.3695 6.24631 14.448V16.3819C6.24587 16.4602 6.21456 16.5352 6.15917 16.5906C6.10378 16.646 6.02877 16.6773 5.95044 16.6777H3.63639C3.55777 16.6777 3.48234 16.6466 3.42659 16.5912C3.37084 16.5357 3.3393 16.4605 3.33887 16.3819V14.448C3.3393 14.3693 3.37084 14.2941 3.42659 14.2387C3.48234 14.1832 3.55777 14.1521 3.63639 14.1521V14.1521Z" fill="#1A1A1A"/>
<path fill-rule="evenodd" clip-rule="evenodd" d="M9.02151 14.1521H11.3455C11.424 14.1521 11.4992 14.1833 11.5547 14.2388C11.6102 14.2942 11.6413 14.3695 11.6413 14.448V16.3819C11.6409 16.4602 11.6096 16.5352 11.5542 16.5906C11.4988 16.646 11.4238 16.6773 11.3455 16.6777H9.02151C8.94318 16.6773 8.86818 16.646 8.81278 16.5906C8.75739 16.5352 8.72608 16.4602 8.72565 16.3819V14.448C8.72608 14.3696 8.75739 14.2946 8.81278 14.2392C8.86818 14.1838 8.94318 14.1525 9.02151 14.1521V14.1521Z" fill="#1A1A1A"/>
<path fill-rule="evenodd" clip-rule="evenodd" d="M14.3587 14.1521H16.6826C16.761 14.1525 16.836 14.1838 16.8914 14.2392C16.9468 14.2946 16.9781 14.3696 16.9785 14.448V16.3819C16.9781 16.4602 16.9468 16.5352 16.8914 16.5906C16.836 16.646 16.761 16.6773 16.6826 16.6777H14.3587C14.2803 16.6773 14.2053 16.646 14.1499 16.5906C14.0945 16.5352 14.0632 16.4602 14.0628 16.3819V14.448C14.0628 14.3695 14.094 14.2942 14.1495 14.2388C14.2049 14.1833 14.2802 14.1521 14.3587 14.1521V14.1521Z" fill="#1A1A1A"/>
<path fill-rule="evenodd" clip-rule="evenodd" d="M3.63639 9.32556H5.95044C6.02906 9.326 6.10431 9.35754 6.15975 9.41329C6.21519 9.46903 6.24631 9.54446 6.24631 9.62308V11.5553C6.24587 11.6336 6.21456 11.7087 6.15917 11.764C6.10378 11.8194 6.02877 11.8507 5.95044 11.8512H3.63639C3.55777 11.8512 3.48234 11.8201 3.42659 11.7646C3.37084 11.7092 3.3393 11.6339 3.33887 11.5553V9.62308C3.3393 9.54431 3.37079 9.46889 3.42649 9.41318C3.48219 9.35748 3.55761 9.326 3.63639 9.32556V9.32556Z" fill="#1A1A1A"/>
<path fill-rule="evenodd" clip-rule="evenodd" d="M9.02151 9.32556H11.3455C11.4241 9.326 11.4994 9.35754 11.5548 9.41329C11.6102 9.46903 11.6414 9.54446 11.6413 9.62308V11.5553C11.6409 11.6336 11.6096 11.7087 11.5542 11.764C11.4988 11.8194 11.4238 11.8507 11.3455 11.8512H9.02151C8.94305 11.8512 8.86779 11.82 8.8123 11.7645C8.75682 11.709 8.72565 11.6338 8.72565 11.5553V9.62308C8.72565 9.54446 8.75676 9.46903 8.8122 9.41329C8.86764 9.35754 8.94289 9.326 9.02151 9.32556V9.32556Z" fill="#1A1A1A"/>
<path fill-rule="evenodd" clip-rule="evenodd" d="M14.3587 9.32556H16.6826C16.7613 9.326 16.8365 9.35754 16.892 9.41329C16.9474 9.46903 16.9785 9.54446 16.9785 9.62308V11.5553C16.9781 11.6336 16.9468 11.7087 16.8914 11.764C16.836 11.8194 16.761 11.8507 16.6826 11.8512H14.3587C14.2802 11.8512 14.2049 11.82 14.1495 11.7645C14.094 11.709 14.0628 11.6338 14.0628 11.5553V9.62308C14.0628 9.54446 14.0939 9.46903 14.1494 9.41329C14.2048 9.35754 14.2801 9.326 14.3587 9.32556V9.32556Z" fill="#1A1A1A"/>
</g>
<defs>
<clipPath id="clip0_373_29">
<rect width="20.3107" height="20" fill="white"/>
</clipPath>
</defs>
</svg>
